<svg width="1889" height="1914" viewBox="0 0 1889 1914" fill="none" xmlns="http://www.w3.org/2000/svg">
<rect x="-35" width="1923" height="1090" fill="#E37C73"/>
<rect x="1359.77" width="528.232" height="518" fill="url(#paint0_linear_109_1653)"/>
<rect x="-35" y="1090" width="526" height="512" transform="rotate(-90 -35 1090)" fill="url(#paint1_linear_109_1653)"/>
<line y1="-0.5" x2="17.9021" y2="-0.5" transform="matrix(-0.703256 0.710936 -0.703256 -0.710936 9.06421 518)" stroke="white"/>
<line y1="-0.5" x2="17.9021" y2="-0.5" transform="matrix(-0.703256 0.710936 -0.703256 -0.710936 9.06421 543.455)" stroke="white"/>
<line y1="-0.5" x2="17.9021" y2="-0.5" transform="matrix(-0.703256 0.710936 -0.703256 -0.710936 9.06421 568.909)" stroke="white"/>
<line y1="-0.5" x2="17.9021" y2="-0.5" transform="matrix(-0.703256 0.710936 -0.703256 -0.710936 9.06421 594.364)" stroke="white"/>
<line y1="-0.5" x2="17.9021" y2="-0.5" transform="matrix(-0.703256 0.710936 -0.703256 -0.710936 9.06421 619.818)" stroke="white"/>
<line y1="-0.5" x2="17.9021" y2="-0.5" transform="matrix(-0.703256 0.710936 -0.703256 -0.710936 40.5388 518)" stroke="white"/>
<line y1="-0.5" x2="17.9021" y2="-0.5" transform="matrix(-0.703256 0.710936 -0.703256 -0.710936 40.5388 543.455)" stroke="white"/>
<line y1="-0.5" x2="17.9021" y2="-0.5" transform="matrix(-0.703256 0.710936 -0.703256 -0.710936 40.5388 568.909)" stroke="white"/>
<line y1="-0.5" x2="17.9021" y2="-0.5" transform="matrix(-0.703256 0.710936 -0.703256 -0.710936 40.5388 594.364)" stroke="white"/>
<line y1="-0.5" x2="17.9021" y2="-0.5" transform="matrix(-0.703256 0.710936 -0.703256 -0.710936 40.5388 619.818)" stroke="white"/>
<line y1="-0.5" x2="17.9021" y2="-0.5" transform="matrix(-0.703256 0.710936 -0.703256 -0.710936 72.0132 518)" stroke="white"/>
<line y1="-0.5" x2="17.9021" y2="-0.5" transform="matrix(-0.703256 0.710936 -0.703256 -0.710936 72.0132 543.455)" stroke="white"/>
<line y1="-0.5" x2="17.9021" y2="-0.5" transform="matrix(-0.703256 0.710936 -0.703256 -0.710936 72.0132 568.909)" stroke="white"/>
<line y1="-0.5" x2="17.9021" y2="-0.5" transform="matrix(-0.703256 0.710936 -0.703256 -0.710936 72.0132 594.364)" stroke="white"/>
<line y1="-0.5" x2="17.9021" y2="-0.5" transform="matrix(-0.703256 0.710936 -0.703256 -0.710936 72.0132 619.818)" stroke="white"/>
<line y1="-0.5" x2="17.9021" y2="-0.5" transform="matrix(-0.703256 0.710936 -0.703256 -0.710936 103.488 518)" stroke="white"/>
<line y1="-0.5" x2="17.9021" y2="-0.5" transform="matrix(-0.703256 0.710936 -0.703256 -0.710936 103.488 543.455)" stroke="white"/>
<line y1="-0.5" x2="17.9021" y2="-0.5" transform="matrix(-0.703256 0.710936 -0.703256 -0.710936 103.488 568.909)" stroke="white"/>
<line y1="-0.5" x2="17.9021" y2="-0.5" transform="matrix(-0.703256 0.710936 -0.703256 -0.710936 103.488 594.364)" stroke="white"/>
<line y1="-0.5" x2="17.9021" y2="-0.5" transform="matrix(-0.703256 0.710936 -0.703256 -0.710936 103.488 619.818)" stroke="white"/>
<path d="M-35 1084.5C41.92 1059.83 106.02 1059.83 157.3 1084.5C208.58 1109.17 272.68 1109.17 349.6 1084.5C426.52 1059.83 490.62 1059.83 541.9 1084.5C593.18 1109.17 657.28 1109.17 734.2 1084.5C811.12 1059.83 875.22 1059.83 926.5 1084.5C977.78 1109.17 1041.88 1109.17 1118.8 1084.5C1195.72 1059.83 1259.82 1059.83 1311.1 1084.5C1362.38 1109.17 1426.48 1109.17 1503.4 1084.5C1580.32 1059.83 1644.42 1059.83 1695.7 1084.5C1746.98 1109.17 1811.08 1109.17 1888 1084.5M-35 1003.5C41.92 978.833 106.02 978.833 157.3 1003.5C208.58 1028.17 272.68 1028.17 349.6 1003.5C426.52 978.833 490.62 978.833 541.9 1003.5C593.18 1028.17 657.28 1028.17 734.2 1003.5C811.12 978.833 875.22 978.833 926.5 1003.5C977.78 1028.17 1041.88 1028.17 1118.8 1003.5C1195.72 978.833 1259.82 978.833 1311.1 1003.5C1362.38 1028.17 1426.48 1028.17 1503.4 1003.5C1580.32 978.833 1644.42 978.833 1695.7 1003.5C1746.98 1028.17 1811.08 1028.17 1888 1003.5M-35 922.5C41.92 897.833 106.02 897.833 157.3 922.5C208.58 947.167 272.68 947.167 349.6 922.5C426.52 897.833 490.62 897.833 541.9 922.5C593.18 947.167 657.28 947.167 734.2 922.5C811.12 897.833 875.22 897.833 926.5 922.5C977.78 947.167 1041.88 947.167 1118.8 922.5C1195.72 897.833 1259.82 897.833 1311.1 922.5C1362.38 947.167 1426.48 947.167 1503.4 922.5C1580.32 897.833 1644.42 897.833 1695.7 922.5C1746.98 947.167 1811.08 947.167 1888 922.5M-35 841.5C41.92 816.833 106.02 816.833 157.3 841.5C208.58 866.167 272.68 866.167 349.6 841.5C426.52 816.833 490.62 816.833 541.9 841.5C593.18 866.167 657.28 866.167 734.2 841.5C811.12 816.833 875.22 816.833 926.5 841.5C977.78 866.167 1041.88 866.167 1118.8 841.5C1195.72 816.833 1259.82 816.833 1311.1 841.5C1362.38 866.167 1426.48 866.167 1503.4 841.5C1580.32 816.833 1644.42 816.833 1695.7 841.5C1746.98 866.167 1811.08 866.167 1888 841.5M-35 760.5C41.92 735.833 106.02 735.833 157.3 760.5C208.58 785.167 272.68 785.167 349.6 760.5C426.52 735.833 490.62 735.833 541.9 760.5C593.18 785.167 657.28 785.167 734.2 760.5C811.12 735.833 875.22 735.833 926.5 760.5C977.78 785.167 1041.88 785.167 1118.8 760.5C1195.72 735.833 1259.82 735.833 1311.1 760.5C1362.38 785.167 1426.48 785.167 1503.4 760.5C1580.32 735.833 1644.42 735.833 1695.7 760.5C1746.98 785.167 1811.08 785.167 1888 760.5M-35 679.5C41.92 654.833 106.02 654.833 157.3 679.5C208.58 704.167 272.68 704.167 349.6 679.5C426.52 654.833 490.62 654.833 541.9 679.5C593.18 704.167 657.28 704.167 734.2 679.5C811.12 654.833 875.22 654.833 926.5 679.5C977.78 704.167 1041.88 704.167 1118.8 679.5C1195.72 654.833 1259.82 654.833 1311.1 679.5C1362.38 704.167 1426.48 704.167 1503.4 679.5C1580.32 654.833 1644.42 654.833 1695.7 679.5C1746.98 704.167 1811.08 704.167 1888 679.5" stroke="url(#paint2_linear_109_1653)" stroke-width="2"/>
<line y1="-0.5" x2="19.9481" y2="-0.5" transform="matrix(-0.703256 0.710936 -0.703256 -0.710936 1529.1 195)" stroke="white"/>
<line y1="-0.5" x2="19.9481" y2="-0.5" transform="matrix(-0.703256 0.710936 -0.703256 -0.710936 1529.1 223.364)" stroke="white"/>
<line y1="-0.5" x2="19.9481" y2="-0.5" transform="matrix(-0.703256 0.710936 -0.703256 -0.710936 1529.1 251.727)" stroke="white"/>
<line y1="-0.5" x2="19.9481" y2="-0.5" transform="matrix(-0.703256 0.710936 -0.703256 -0.710936 1529.1 280.091)" stroke="white"/>
<line y1="-0.5" x2="19.9481" y2="-0.5" transform="matrix(-0.703256 0.710936 -0.703256 -0.710936 1529.1 308.455)" stroke="white"/>
<line y1="-0.5" x2="19.9481" y2="-0.5" transform="matrix(-0.703256 0.710936 -0.703256 -0.710936 1564.17 195)" stroke="white"/>
<line y1="-0.5" x2="19.9481" y2="-0.5" transform="matrix(-0.703256 0.710936 -0.703256 -0.710936 1564.17 223.364)" stroke="white"/>
<line y1="-0.5" x2="19.9481" y2="-0.5" transform="matrix(-0.703256 0.710936 -0.703256 -0.710936 1564.17 251.727)" stroke="white"/>
<line y1="-0.5" x2="19.9481" y2="-0.5" transform="matrix(-0.703256 0.710936 -0.703256 -0.710936 1564.17 280.091)" stroke="white"/>
<line y1="-0.5" x2="19.9481" y2="-0.5" transform="matrix(-0.703256 0.710936 -0.703256 -0.710936 1564.17 308.455)" stroke="white"/>
<line y1="-0.5" x2="19.9481" y2="-0.5" transform="matrix(-0.703256 0.710936 -0.703256 -0.710936 1599.24 195)" stroke="white"/>
<line y1="-0.5" x2="19.9481" y2="-0.5" transform="matrix(-0.703256 0.710936 -0.703256 -0.710936 1599.24 223.364)" stroke="white"/>
<line y1="-0.5" x2="19.9481" y2="-0.5" transform="matrix(-0.703256 0.710936 -0.703256 -0.710936 1599.24 251.727)" stroke="white"/>
<line y1="-0.5" x2="19.9481" y2="-0.5" transform="matrix(-0.703256 0.710936 -0.703256 -0.710936 1599.24 280.091)" stroke="white"/>
<line y1="-0.5" x2="19.9481" y2="-0.5" transform="matrix(-0.703256 0.710936 -0.703256 -0.710936 1599.24 308.455)" stroke="white"/>
<line y1="-0.5" x2="19.9481" y2="-0.5" transform="matrix(-0.703256 0.710936 -0.703256 -0.710936 1634.32 195)" stroke="white"/>
<line y1="-0.5" x2="19.9481" y2="-0.5" transform="matrix(-0.703256 0.710936 -0.703256 -0.710936 1634.32 223.364)" stroke="white"/>
<line y1="-0.5" x2="19.9481" y2="-0.5" transform="matrix(-0.703256 0.710936 -0.703256 -0.710936 1634.32 251.727)" stroke="white"/>
<line y1="-0.5" x2="19.9481" y2="-0.5" transform="matrix(-0.703256 0.710936 -0.703256 -0.710936 1634.32 280.091)" stroke="white"/>
<line y1="-0.5" x2="19.9481" y2="-0.5" transform="matrix(-0.703256 0.710936 -0.703256 -0.710936 1634.32 308.455)" stroke="white"/>
<line y1="-0.5" x2="19.9481" y2="-0.5" transform="matrix(-0.703256 0.710936 -0.703256 -0.710936 1669.39 195)" stroke="white"/>
<line y1="-0.5" x2="19.9481" y2="-0.5" transform="matrix(-0.703256 0.710936 -0.703256 -0.710936 1669.39 223.364)" stroke="white"/>
<line y1="-0.5" x2="19.9481" y2="-0.5" transform="matrix(-0.703256 0.710936 -0.703256 -0.710936 1669.39 251.727)" stroke="white"/>
<line y1="-0.5" x2="19.9481" y2="-0.5" transform="matrix(-0.703256 0.710936 -0.703256 -0.710936 1669.39 280.091)" stroke="white"/>
<line y1="-0.5" x2="19.9481" y2="-0.5" transform="matrix(-0.703256 0.710936 -0.703256 -0.710936 1669.39 308.455)" stroke="white"/>
<line y1="-0.5" x2="19.9481" y2="-0.5" transform="matrix(-0.703256 0.710936 -0.703256 -0.710936 861.393 784)" stroke="white"/>
<line y1="-0.5" x2="19.9481" y2="-0.5" transform="matrix(-0.703256 0.710936 -0.703256 -0.710936 861.393 812.364)" stroke="white"/>
<line y1="-0.5" x2="19.9481" y2="-0.5" transform="matrix(-0.703256 0.710936 -0.703256 -0.710936 861.393 840.727)" stroke="white"/>
<line y1="-0.5" x2="19.9481" y2="-0.5" transform="matrix(-0.703256 0.710936 -0.703256 -0.710936 861.393 869.091)" stroke="white"/>
<line y1="-0.5" x2="19.9481" y2="-0.5" transform="matrix(-0.703256 0.710936 -0.703256 -0.710936 861.393 897.455)" stroke="white"/>
<line y1="-0.5" x2="19.9481" y2="-0.5" transform="matrix(-0.703256 0.710936 -0.703256 -0.710936 896.464 784)" stroke="white"/>
<line y1="-0.5" x2="19.9481" y2="-0.5" transform="matrix(-0.703256 0.710936 -0.703256 -0.710936 896.464 812.364)" stroke="white"/>
<line y1="-0.5" x2="19.9481" y2="-0.5" transform="matrix(-0.703256 0.710936 -0.703256 -0.710936 896.464 840.727)" stroke="white"/>
<line y1="-0.5" x2="19.9481" y2="-0.5" transform="matrix(-0.703256 0.710936 -0.703256 -0.710936 896.464 869.091)" stroke="white"/>
<line y1="-0.5" x2="19.9481" y2="-0.5" transform="matrix(-0.703256 0.710936 -0.703256 -0.710936 896.464 897.455)" stroke="white"/>
<line y1="-0.5" x2="19.9481" y2="-0.5" transform="matrix(-0.703256 0.710936 -0.703256 -0.710936 931.536 784)" stroke="white"/>
<line y1="-0.5" x2="19.9481" y2="-0.5" transform="matrix(-0.703256 0.710936 -0.703256 -0.710936 931.536 812.364)" stroke="white"/>
<line y1="-0.5" x2="19.9481" y2="-0.5" transform="matrix(-0.703256 0.710936 -0.703256 -0.710936 931.536 840.727)" stroke="white"/>
<line y1="-0.5" x2="19.9481" y2="-0.5" transform="matrix(-0.703256 0.710936 -0.703256 -0.710936 931.536 869.091)" stroke="white"/>
<line y1="-0.5" x2="19.9481" y2="-0.5" transform="matrix(-0.703256 0.710936 -0.703256 -0.710936 931.536 897.455)" stroke="white"/>
<line y1="-0.5" x2="19.9481" y2="-0.5" transform="matrix(-0.703256 0.710936 -0.703256 -0.710936 966.607 784)" stroke="white"/>
<line y1="-0.5" x2="19.9481" y2="-0.5" transform="matrix(-0.703256 0.710936 -0.703256 -0.710936 966.607 812.364)" stroke="white"/>
<line y1="-0.5" x2="19.9481" y2="-0.5" transform="matrix(-0.703256 0.710936 -0.703256 -0.710936 966.607 840.727)" stroke="white"/>
<line y1="-0.5" x2="19.9481" y2="-0.5" transform="matrix(-0.703256 0.710936 -0.703256 -0.710936 966.607 869.091)" stroke="white"/>
<line y1="-0.5" x2="19.9481" y2="-0.5" transform="matrix(-0.703256 0.710936 -0.703256 -0.710936 966.607 897.455)" stroke="white"/>
<line y1="-0.5" x2="19.9481" y2="-0.5" transform="matrix(-0.703256 0.710936 -0.703256 -0.710936 1001.68 784)" stroke="white"/>
<line y1="-0.5" x2="19.9481" y2="-0.5" transform="matrix(-0.703256 0.710936 -0.703256 -0.710936 1001.68 812.364)" stroke="white"/>
<line y1="-0.5" x2="19.9481" y2="-0.5" transform="matrix(-0.703256 0.710936 -0.703256 -0.710936 1001.68 840.727)" stroke="white"/>
<line y1="-0.5" x2="19.9481" y2="-0.5" transform="matrix(-0.703256 0.710936 -0.703256 -0.710936 1001.68 869.091)" stroke="white"/>
<line y1="-0.5" x2="19.9481" y2="-0.5" transform="matrix(-0.703256 0.710936 -0.703256 -0.710936 1001.68 897.455)" stroke="white"/>
<defs>
<linearGradient id="paint0_linear_109_1653" x1="1623.88" y1="0" x2="1623.88" y2="518" gradientUnits="userSpaceOnUse">
<stop stop-color="#D85448"/>
<stop offset="1" stop-color="#E7766C" stop-opacity="0"/>
</linearGradient>
<linearGradient id="paint1_linear_109_1653" x1="228" y1="1090" x2="228" y2="1602" gradientUnits="userSpaceOnUse">
<stop stop-color="#D85448"/>
<stop offset="1" stop-color="#E7766C" stop-opacity="0"/>
</linearGradient>
<linearGradient id="paint2_linear_109_1653" x1="926.5" y1="661" x2="926.5" y2="1103" gradientUnits="userSpaceOnUse">
<stop stop-color="#E37C73"/>
<stop offset="1" stop-color="white" stop-opacity="0"/>
</linearGradient>
</defs>
</svg>
